Coordinates
version=1
nRows=8
nColumns=63
inDegrees=yes

Units are S.I. units (second, meters, Newtons, ...)
If the header above contains a line with 'inDegrees', this indicates whether rotational values are in degrees (yes) or radians (no).

endheader
time	pelvis_tilt	pelvis_list	pelvis_rotation	pelvis_tx	pelvis_ty	pelvis_tz	hip_flexion_r	hip_adduction_r	hip_rotation_r	knee_angle_r	knee_angle_r_beta	ankle_angle_r	subtalar_angle_r	mtp_angle_r	hip_flexion_l	hip_adduction_l	hip_rotation_l	knee_angle_l	knee_angle_l_beta	ankle_angle_l	subtalar_angle_l	mtp_angle_l	L5_S1_Flex_Ext	L5_S1_Lat_Bending	L5_S1_axial_rotation	L4_L5_Flex_Ext	L4_L5_Lat_Bending	L4_L5_axial_rotation	L3_L4_Flex_Ext	L3_L4_Lat_Bending	L3_L4_axial_rotation	L2_L3_Flex_Ext	L2_L3_Lat_Bending	L2_L3_axial_rotation	L1_L2_Flex_Ext	L1_L2_Lat_Bending	L1_L2_axial_rotation	L1_T12_Flex_Ext	L1_T12_Lat_Bending	L1_T12_axial_rotation	Abs_r3	Abs_r2	Abs_r1	Abs_t1	Abs_t2	neck_flexion	neck_bending	neck_rotation	arm_flex_r	arm_add_r	arm_rot_r	elbow_flex_r	pro_sup_r	wrist_flex_r	wrist_dev_r	arm_flex_l	arm_add_l	arm_rot_l	elbow_flex_l	pro_sup_l	wrist_flex_l	wrist_dev_l
1.600000	7.289268	-4.043909	101.078105	0.101321	0.840882	0.765413	3.102703	2.567172	-1.364900	6.013279	0.104952	28.650157	3.884477	0.000000	5.795813	-1.409183	26.029838	9.154014	0.159768	27.350034	-13.867192	0.000000	0.271220	0.373331	-1.358919	0.503683	0.496531	-1.443852	0.445588	0.907718	-1.443852	0.309978	0.907718	-1.189055	0.251855	0.761297	-1.104122	0.154975	0.578290	-1.019190	1.937300	4.223198	-7.557902	0.000000	0.000000	12.730142	1.654142	0.231540	24.047719	-11.784516	59.066643	46.269900	57.519004	0.437849	0.077976	19.342436	-17.468837	57.639401	52.160915	62.646936	-2.325038	-6.103086
1.616667	7.078999	-3.852495	101.036377	0.101058	0.841287	0.763606	2.606083	2.415893	-0.636232	5.816324	0.101514	28.362554	2.797016	0.000000	5.179759	-1.213069	27.066104	8.649692	0.150966	26.891782	-15.032743	0.000000	0.267905	0.348723	-1.358010	0.497526	0.463802	-1.442886	0.440141	0.847886	-1.442886	0.306188	0.847886	-1.188259	0.248776	0.711117	-1.103383	0.153081	0.540172	-1.018508	1.913616	3.944828	-7.552845	0.000000	0.000000	12.740043	1.550961	-0.714368	23.333636	-12.362877	55.222417	47.029727	57.997327	-0.718326	-0.289051	18.803975	-18.466057	54.139973	53.077598	68.604664	-2.435344	-5.042889
1.633333	6.860348	-3.654606	100.831491	0.101111	0.841866	0.761826	2.150356	2.257484	0.170963	5.681433	0.099160	28.087877	1.811406	0.000000	4.575708	-1.044788	27.636214	8.201416	0.143142	26.584234	-15.809747	0.000000	0.264586	0.324243	-1.327698	0.491363	0.431243	-1.410679	0.434688	0.788364	-1.410679	0.302395	0.788364	-1.161736	0.245695	0.661196	-1.078755	0.151184	0.502252	-0.995774	1.889911	3.667901	-7.384259	0.000000	0.000000	12.723148	1.446647	-1.705554	22.567030	-13.056942	51.116205	47.962952	58.394402	-1.722452	-0.544886	18.287163	-19.564703	50.617350	54.054843	73.840552	-2.736550	-4.155858
1.650000	6.637281	-3.446776	100.477980	0.101449	0.842637	0.760092	1.735644	2.095574	1.068767	5.601981	0.097773	27.841206	0.912699	0.000000	3.990952	-0.896303	27.759158	7.822070	0.136521	26.411947	-16.246421	0.000000	0.260815	0.300865	-1.274472	0.484359	0.400150	-1.354126	0.428493	0.731523	-1.354126	0.298085	0.731523	-1.115163	0.242193	0.613524	-1.035508	0.149030	0.466040	-0.955854	1.862974	3.403443	-7.088230	0.000000	0.000000	12.642440	1.324930	-2.663520	21.798828	-13.856948	46.894851	49.069092	58.659609	-2.582054	-0.681116	17.696104	-20.729449	46.938726	55.102233	78.391774	-3.215741	-3.403491
1.666667	6.414448	-3.234378	99.974568	0.102059	0.843605	0.758400	1.371856	1.931675	2.013002	5.573952	0.097284	27.636787	0.179120	0.000000	3.429167	-0.763741	27.479976	7.504832	0.130984	26.343196	-16.441229	0.000000	0.257482	0.279126	-1.197912	0.478170	0.371237	-1.272781	0.423017	0.678666	-1.272781	0.294276	0.678666	-1.048173	0.239098	0.569193	-0.973303	0.147125	0.432366	-0.898434	1.839168	3.157526	-6.662426	0.000000	0.000000	12.467843	1.183426	-3.570561	21.010287	-14.754399	42.535065	50.358912	59.182356	-3.327799	-0.717036	16.969707	-21.932256	43.094233	56.227818	82.234552	-3.961809	-2.776675
1.683333	6.199019	-3.025023	99.301400	0.102949	0.844756	0.756812	1.081598	1.774142	3.085722	5.608885	0.097894	27.480215	-0.449022	0.000000	2.908738	-0.651846	26.779555	7.261975	0.126745	26.371466	-16.429103	0.000000	0.254873	0.259937	-1.089999	0.473324	0.345717	-1.158124	0.418730	0.632012	-1.158124	0.291294	0.632012	-0.953749	0.236675	0.530065	-0.885624	0.145634	0.402643	-0.817499	1.820529	2.940465	-6.062249	0.000000	0.000000	12.193926	1.030460	-4.419301	20.265762	-15.744257	38.242772	51.833443	59.698965	-3.986079	-0.565109	16.153287	-23.126246	39.241115	57.468588	84.948225	-4.915406	-2.099740
1.700000	5.982122	-2.807535	98.533005	0.104018	0.846093	0.755214	0.828824	1.606031	4.052933	5.673757	0.099026	27.415717	-0.740578	0.000000	2.404551	-0.546425	25.713034	7.069735	0.123390	26.492628	-16.152175	0.000000	0.252094	0.241061	-0.973510	0.468164	0.320611	-1.034354	0.414165	0.586115	-1.034354	0.288118	0.586115	-0.851821	0.234094	0.491571	-0.790977	0.144046	0.373403	-0.730132	1.800681	2.726927	-5.414369	0.000000	0.000000	11.780147	0.848232	-5.210829	19.525687	-16.756184	34.033570	53.446043	60.651274	-4.681784	-0.465413	15.074213	-24.311807	35.002284	58.824546	87.291983	-6.129187	-1.399748
1.716667	5.778449	-2.582967	97.655491	0.105272	0.847575	0.753678	0.631157	1.438944	4.898098	5.791733	0.101085	27.444755	-0.661233	0.000000	1.937280	-0.471323	24.131981	6.955791	0.121401	26.748811	-15.435827	0.000000	0.247964	0.224118	-0.838759	0.460493	0.298076	-0.891181	0.407379	0.544920	-0.891181	0.283398	0.544920	-0.733914	0.230259	0.457021	-0.681492	0.141686	0.347158	-0.629069	1.771179	2.535264	-4.664925	0.000000	0.000000	11.235258	0.645815	-5.937134	18.831727	-17.783950	30.042366	55.173722	61.622412	-5.370382	-0.361665	13.896283	-25.458644	30.760445	60.317430	88.540158	-7.489518	-0.691458
